<svg width="32" height="17" viewBox="0 0 32 17" fill="none" xmlns="http://www.w3.org/2000/svg">
<path d="M4.36705 0.551257C5.93979 0.520662 7.51506 0.535943 9.08413 0.576837C10.4969 0.604213 12.6843 0.823785 14.4882 0.752399C15.6962 0.889444 16.9161 0.664547 18.132 0.833618C19.8714 0.813213 21.6062 0.550555 23.352 0.64629C24.9916 0.740564 26.1892 0.77841 28.2962 0.739653C30.3852 0.594139 31.3397 0.768312 31.1926 2.79805C31.1074 4.52705 31.1455 6.00494 31.1433 7.32554C31.1531 9.76628 31.5275 14.3807 30.9834 15.1189C30.1504 16.1887 28.1742 15.4225 26.946 15.4462C25.8207 15.4057 24.236 15.7574 23.1295 15.4581C21.7523 15.2682 20.8115 15.6443 19.4283 15.5443C18.0274 15.5443 16.6663 15.3059 15.3166 15.6322C13.6558 15.8516 11.5395 15.8141 9.89799 15.4882C8.2493 15.2334 7.08585 15.4702 5.42755 15.4522C4.07899 15.4384 1.18402 15.9483 0.741339 15.4423C0.247986 14.9203 0.632858 12.1175 0.617759 11.0271C0.512136 8.42291 0.466485 6.62351 0.654192 4.02145C0.678466 3.56609 0.334197 1.64474 0.658272 1.13982C1.33971 0.132036 3.27088 0.691922 4.36705 0.551378V0.551257Z" stroke="#0664A8" stroke-width="0.846667" stroke-miterlimit="10" stroke-linecap="round" stroke-linejoin="round"/>
</svg>
